<svg width="709" height="715" viewBox="0 0 709 715" fill="none" xmlns="http://www.w3.org/2000/svg">
  <circle cx="354" cy="350" r="89" fill="#94F2FF" />
  <path fill-rule="evenodd" clip-rule="evenodd"
    d="M331.742 0.987L320.984 1.83299L310.242 3.48801L299.5 5.14301L288.5 7.63699L277.5 10.132L263.179 14.063L248.857 17.994L235.611 22.958L222.365 27.922L207.163 34.925L191.961 41.927L181.231 48.086L170.5 54.245L157.653 62.716L144.807 71.186L134.153 79.746L123.5 88.306L113.751 97.29L104.002 106.275L93.251 118.209L82.5 130.143L72.5 143.485L62.5 156.827L54.598 169.527L46.697 182.228L41.556 192.364L36.415 202.5L31.603 213.5L26.791 224.5L21.857 238.5L16.923 252.5L14.022 262.5L11.121 272.5L8.07899 287.205L5.037 301.909L3.444 314.205L1.85201 326.5L1.289 347.031L0.727005 367.563L1.918 382.531L3.108 397.5L4.57001 407.5L6.032 417.5L8.492 430L10.952 442.5L15.37 458.01L19.788 473.521L23.529 483.51L27.27 493.5L32.946 506L38.621 518.5L46.933 533L55.246 547.5L62.517 558L69.789 568.5L75.803 576.335L81.818 584.17L94.44 597.973L107.063 611.777L115.781 619.725L124.5 627.674L132.5 634.096L140.5 640.519L152.5 648.632L164.5 656.746L172.5 661.475L180.5 666.204L192.5 672.541L204.5 678.878L217.346 684.466L230.192 690.055L244.846 695.003L259.5 699.95L273.155 703.44L286.81 706.929L301.655 709.411L316.5 711.893L330.909 713.092L345.317 714.291L365.409 713.669L385.5 713.048L396.5 711.527L407.5 710.007L416 708.444L424.5 706.881L436 704.006L447.5 701.13L461.645 696.56L475.79 691.99L487.067 687.429L498.345 682.868L512.923 675.663L527.5 668.459L541.853 659.48L556.205 650.5L570.853 639.562L585.5 628.624L604.605 609.562L623.71 590.5L631.978 580L640.246 569.5L649.477 555.5L658.708 541.5L664.425 531.223L670.142 520.947L675.452 509.646L680.762 498.345L685.297 486.423L689.831 474.5L693.369 462.318L696.908 450.135L700.449 433.67L703.99 417.205L706.222 400.852L708.455 384.5L708.439 356L708.423 327.5L707.155 318L705.887 308.5L703.91 297L701.932 285.5L697.997 270.5L694.062 255.5L690.154 244L686.245 232.5L682.214 222.5L678.184 212.5L674.421 204.5L670.659 196.5L664.743 185.5L658.826 174.5L650.28 161.516L641.734 148.533L635.637 140.516L629.541 132.5L619.404 121L609.266 109.5L598.158 98.778L587.05 88.055L577.275 80.276L567.5 72.498L555.5 64.421L543.5 56.345L535 51.325L526.5 46.305L518 41.743L509.5 37.181L495.5 30.994L481.5 24.806L467 19.856L452.5 14.907L441.5 11.973L430.5 9.03999L420.553 7.002L410.605 4.964L394.553 2.953L378.5 0.942993L360.5 0.542007L342.5 0.141006L331.742 0.987ZM347.06 34.154L346.914 49.808L347.547 52.33L348.179 54.851L355.59 54.89L363 54.929V36.445V17.962L365.25 18.428L367.5 18.894L378 19.525L388.5 20.157L403.5 22.668L418.5 25.179L432.27 28.639L446.039 32.098L459.27 36.629L472.5 41.16L483 45.64L493.5 50.12L507.5 57.358L521.5 64.596L534.5 72.95L547.5 81.304L555 86.8L562.5 92.295L573.711 101.706L584.923 111.117L595.587 122.308L606.252 133.5L615.882 145.5L625.512 157.5L632.623 168L639.733 178.5L645.933 189.442L652.133 200.383L657.048 210.6L661.964 220.817L666.403 231.658L670.843 242.5L674.421 254.306L677.999 266.112L680.932 277.806L683.866 289.5L685.887 300.5L687.908 311.5L688.974 320L690.039 328.5L690.553 330.806L691.066 333.112L686.315 332.806L681.564 332.5L679.868 319.5L678.172 306.5L675.549 293.5L672.925 280.5L670.859 273L668.794 265.5L665.501 255.5L662.208 245.5L658.497 236L654.785 226.5L648.462 213.5L642.138 200.5L633.873 186.703L625.608 172.905L616.791 161.203L607.974 149.5L597.077 137.429L586.179 125.359L576.839 116.838L567.5 108.318L558.532 101.035L549.563 93.752L539.532 87.05L529.5 80.349L519.5 74.231L509.5 68.114L494 60.643L478.5 53.172L464.825 48.117L451.149 43.063L440.954 40.034L430.758 37.005L413.629 33.535L396.5 30.064L389.665 29.385L382.83 28.706L389.523 38.603L396.216 48.5L402.995 62.5L409.773 76.5L413.479 85.5L417.186 94.5L417.506 94.83L417.826 95.16L420.413 93.465L423 91.77V90.525V89.28L417.134 76.377L411.268 63.475L408.069 57.136L404.869 50.798L405.212 50.455L405.555 50.112L417.028 52.582L428.5 55.053L437 57.623L445.5 60.193L458.5 65.28L471.5 70.366L483 70.125L494.5 69.884L500.419 71.946L506.339 74.009L511.126 77.081L515.914 80.153L521.718 86.358L527.522 92.563L531.21 99.531L534.899 106.5L537.699 108.067L540.5 109.634L550.694 117.842L560.887 126.051L573.126 138.275L585.365 150.5L595.073 162.655L604.781 174.81L611.271 184.655L617.762 194.5L625.523 208.5L633.283 222.5L638.046 233.616L642.809 244.732L647.312 257.674L651.814 270.617L654.905 283.058L657.995 295.5L659.916 307L661.837 318.5L663.066 333.75L664.295 349H678.148H692V356.5V364H678.202H664.403L663.236 379.25L662.068 394.5L659.552 409.32L657.037 424.14L653.398 438.32L649.759 452.5L645.301 464.844L640.842 477.188L635.55 488.978L630.258 500.768L624.981 510.134L619.704 519.5L612.84 529.735L605.975 539.97L595.795 552.235L585.615 564.5L573.057 577.03L560.5 589.559L550.5 597.858L540.5 606.157L534.5 610.026L528.5 613.896L527 615.42L525.5 616.944L520.589 621.997L515.678 627.05L508.589 630.538L501.5 634.026L494.988 635.375L488.477 636.725L482.998 639.501L477.518 642.278L465.509 647.021L453.5 651.765L442.5 655.302L431.5 658.838L420.5 661.428L409.5 664.018L407.25 664.528L405 665.038V664.499V663.96L409.481 655.039L413.961 646.118L417.614 637.309L421.266 628.5L423.618 622.268L425.969 616.036L422.892 614.444L419.814 612.853L419.506 613.176L419.198 613.5L414.571 626L409.943 638.5L403.548 651.5L397.153 664.5L390.019 675.394L382.885 686.289L388.693 685.616L394.5 684.944L411.5 681.525L428.5 678.106L443.929 673.496L459.358 668.886L470.929 664.334L482.5 659.782L493.808 654.433L505.116 649.084L514.308 643.86L523.5 638.636L533.437 632.226L543.374 625.816L551.937 619.195L560.5 612.573L569 605.42L577.5 598.267L591.5 583.879L605.5 569.492L615.686 555.996L625.871 542.5L632.488 532L639.105 521.5L646.86 505.978L654.615 490.456L658.874 479.478L663.133 468.5L667.514 453.829L671.896 439.158L674.887 423.829L677.878 408.5L679.439 397.872L681 387.243V384.238V381.233L683.25 380.63L685.5 380.027L687.75 380.014L690 380L689.995 384.25L689.989 388.5L687.944 402.5L685.899 416.5L683.847 426.5L681.795 436.5L678.941 447.527L676.088 458.554L672.451 469.027L668.813 479.5L664.801 489L660.789 498.5L654.89 510.334L648.991 522.167L644.827 529.334L640.663 536.5L633.832 546.716L627.001 556.932L618.811 567.113L610.622 577.294L596.12 592.222L581.618 607.149L571.059 615.935L560.5 624.721L549.8 632.323L539.101 639.926L526.8 647.33L514.5 654.734L508.262 657.876L502.024 661.017L488.262 667.135L474.5 673.254L460 678.159L445.5 683.064L432 686.48L418.5 689.897L407 691.919L395.5 693.942L385.144 694.971L374.788 696H368.894H363V677.059V658.118L362.25 657.772L361.5 657.426L354.25 657.795L347 658.164V677.082V696H342.062H337.123L320.812 693.949L304.5 691.898L289 688.344L273.5 684.79L262 681.339L250.5 677.887L236.5 672.326L222.5 666.764L209.5 660.567L196.5 654.369L183.5 646.543L170.5 638.716L161 632.122L151.5 625.527L143.5 619.106L135.5 612.684L126.424 604.378L117.348 596.073L106.257 583.787L95.166 571.5L89.737 564.5L84.309 557.5L78.294 549L72.279 540.5L66.508 530.5L60.736 520.5L52.976 504.5L45.216 488.5L41.592 478.684L37.968 468.868L33.499 453.888L29.03 438.907L26.033 424.499L23.037 410.091L21.518 397.825L20 385.56V383.28V381H24.371H28.742L29.404 388.25L30.067 395.5L32.584 411L35.102 426.5L38.489 439.5L41.876 452.5L47.027 467.5L52.179 482.5L57.34 493.489L62.5 504.478L68.306 515.489L74.111 526.5L82.514 539L90.916 551.5L99.695 562.474L108.474 573.448L121.487 586.863L134.5 600.278L147.5 610.742L160.5 621.205L173.038 629.53L185.577 637.854L197.538 644.387L209.5 650.92L225.102 657.905L240.704 664.89L252.602 668.994L264.5 673.098L278 676.479L291.5 679.86L303.5 682.32L315.5 684.78L320.75 685.425L326 686.069V685.573V685.077L320.464 676.948L314.929 668.818L310.259 659.659L305.59 650.5L301.445 641.5L297.301 632.5L293.573 622.341L289.845 612.182L286.929 613.841L284.013 615.5L284.006 616.325L284 617.151L288.144 627.825L292.288 638.5L298.149 650.911L304.01 663.323L303.5 663.833L302.99 664.344L291.745 661.595L280.5 658.846L262.807 652.965L245.113 647.084L232.807 641.632L220.5 636.179L216.5 635.614L212.5 635.049L207.351 633.516L202.201 631.982L196.142 627.936L190.082 623.889L186.061 618.839L182.04 613.789L173.27 607.702L164.5 601.615L157.5 596.136L150.5 590.656L135.965 576.078L121.43 561.5L115.382 554L109.334 546.5L103.849 539L98.365 531.5L92.52 522L86.675 512.5L79.944 499L73.212 485.5L70.48 479L67.748 472.5L64.299 463L60.849 453.5L56.434 436.287L52.019 419.075L49.537 404.422L47.055 389.77L46.447 380.635L45.84 371.5L45.564 368L45.289 364.5L31.645 364.222L18 363.944V356.5V349.056L31.75 348.778L45.5 348.5L45.741 342.5L45.982 336.5L47.034 326.5L48.087 316.5L50.62 303L53.153 289.5L56.619 276.702L60.085 263.905L63.075 255.702L66.064 247.5L70.244 237.5L74.424 227.5L80.322 216L86.219 204.5L91.049 196.5L95.879 188.5L105.69 174.819L115.5 161.138L126.307 149.198L137.114 137.258L147.686 127.879L158.258 118.5L167.093 111.482L175.928 104.464L178.976 98.363L182.025 92.262L188.11 85.622L194.194 78.982L201.347 75.568L208.5 72.154L214.792 70.939L221.084 69.723L229.765 70.265L238.446 70.806L247.973 67.015L257.5 63.224L266.5 60.04L275.5 56.856L289.78 53.428L304.059 50H304.538H305.017L299.471 61.058L293.925 72.116L291.864 77.308L289.803 82.5L287.97 87.113L286.137 91.725L288.915 93.779L291.692 95.832L297.455 82.166L303.217 68.5L309.244 57.001L315.271 45.501L320.652 37.6L326.033 29.699L325.542 29.208L325.051 28.717L317.275 29.925L309.5 31.133L293.685 34.618L277.869 38.102L265.685 41.941L253.5 45.779L244 49.263L234.5 52.748L223.144 57.84L211.787 62.932L198.644 70.099L185.5 77.266L175 84.29L164.5 91.313L155.6 98.119L146.7 104.924L134.982 115.517L123.263 126.109L115.296 134.804L107.329 143.5L99.707 153.259L92.085 163.019L85.636 172.268L79.187 181.518L73.413 191.509L67.64 201.5L60.401 216.5L53.162 231.5L48.666 244.001L44.169 256.501L40.596 269.001L37.023 281.5L34.481 294L31.938 306.5L30.469 318.994L29 331.488V332.244V333H24.384H19.767L20.432 326.25L21.098 319.5L23.591 304.5L26.084 289.5L29.498 276L32.912 262.5L37.57 248.5L42.229 234.5L48.692 220L55.155 205.5L61.236 194.5L67.316 183.5L74.491 172.5L81.666 161.5L89.583 151.381L97.5 141.262L108.196 129.375L118.893 117.488L129.696 107.83L140.5 98.172L147 92.981L153.5 87.79L164 80.51L174.5 73.231L187.5 65.888L200.5 58.546L210.391 53.734L220.282 48.922L236.657 42.423L253.031 35.924L268.38 31.519L283.729 27.113L298.614 24.14L313.5 21.167L324.5 20.078L335.5 18.989L338.5 18.622L341.5 18.256L344.353 18.378L347.206 18.5L347.06 34.154ZM345.034 67.597L340.569 69.221L337.051 71.611L333.533 74.002L327.137 80.251L320.741 86.5L313.404 96.157L306.067 105.814L310.452 109.407L314.837 113H315.752H316.668L320.584 107.285L324.5 101.57L333 92.942L341.5 84.315L346.066 82.157L350.631 80H355H359.369L363.665 82.08L367.961 84.16L373.026 88.714L378.091 93.267L386.144 103.116L394.197 112.965L395.848 112.052L397.5 111.139L400.777 108.32L404.055 105.5L396.692 96L389.329 86.5L381.617 79.3L373.905 72.101L368.414 69.414L362.923 66.727L356.211 66.35L349.5 65.973L345.034 67.597ZM475.5 80.025L469.5 80.848L461 83.529L452.5 86.21L443 91.07L433.5 95.93L422.581 103.038L411.662 110.147L397.081 121.321L382.5 132.495L368.428 146.207L354.355 159.919L350.617 155.447L346.879 150.975L334.95 140.117L323.022 129.26L309.261 118.805L295.5 108.35L285.72 101.675L275.941 94.999L270.199 92.1L264.456 89.202L257.978 86.547L251.5 83.892L243.5 81.953L235.5 80.014L226.355 80.007L217.211 80L210.855 81.983L204.5 83.967L199.584 87.733L194.667 91.5L190.894 97L187.121 102.5L184.894 109L182.667 115.5L182.224 130.25L181.782 145H183.177H184.573L190.536 142.693L196.5 140.385L197.199 131.443L197.898 122.5L199.481 118.033L201.065 113.566L203.494 109.42L205.924 105.274L209.466 102.164L213.009 99.053L218.694 97.401L224.379 95.748L231.071 96.37L237.763 96.992L244.632 99.109L251.5 101.227L260.5 105.438L269.5 109.65L278 114.976L286.5 120.301L295.766 127.161L305.033 134.02L318.266 145.897L331.5 157.774L338.466 164.221L345.432 170.668L337.803 178.584L330.174 186.5L322.419 195.75L314.664 205H313.889H313.114L309.807 203.07L306.5 201.141L294.002 196.022L281.504 190.904L280.727 190.127L279.95 189.35L285.53 170.992L291.109 152.633L294.055 145.712L297 138.791V137.993V137.196L290.805 132.593L284.61 127.99L283.937 128.745L283.264 129.5L278.697 142.628L274.13 155.757L271.14 166.128L268.15 176.5L267.051 180.697L265.951 184.894L261.726 183.377L257.5 181.859L245.08 178.43L232.659 175H231.037H229.415L228.175 179.635L226.936 184.269L227.218 184.473L227.5 184.676L243.365 190.061L259.229 195.447L260.779 196.58L262.329 197.714L259.602 210.607L256.876 223.5L256.419 225.75L255.962 228H237.62H219.277L217.601 217.082L215.925 206.164L215.347 201.286L214.77 196.407L207.386 198.954L200.001 201.5L200.051 203L200.101 204.5L201.849 216.1L203.596 227.7L182.048 228.328L160.5 228.956L147 230.92L133.5 232.884L121.146 235.501L108.793 238.118L101.646 240.67L94.5 243.222L88.863 246.615L83.226 250.008L79.516 254.114L75.806 258.221L73.451 263.304L71.096 268.387L70.475 273.444L69.855 278.5L70.983 283.5L72.112 288.5L75.509 295.5L78.907 302.5L85.35 311L91.794 319.5L98.949 327.327L106.104 335.153L113.245 341.585L120.387 348.017L123.654 344.85L126.922 341.684L115.971 330.292L105.02 318.901L98.024 309.103L91.029 299.304L88.284 293.402L85.54 287.5L85.554 281L85.567 274.5L87.217 271.429L88.866 268.358L92.573 264.758L96.28 261.157L102.39 258.061L108.5 254.964L122 251.586L135.5 248.208L150.5 246.008L165.5 243.808L185.75 243.261L206 242.714L206.008 243.607L206.016 244.5L209.013 258.938L212.01 273.376L214.579 283.438L217.148 293.5L220.173 304.145L223.198 314.79L206.891 330.802L190.585 346.814L189.542 345.486L188.5 344.158L175.525 329.065L162.549 313.971L153.737 301.736L144.924 289.5L140.462 280.454L136 271.408V269.263V267.118L135 266.5L134 265.882L133.841 270.691L133.683 275.5L133.938 281L134.193 286.5L136.162 292.412L138.13 298.323L140.68 303.412L143.231 308.5L148.287 316L153.343 323.5L163.164 335.5L172.985 347.5L177.094 352.247L181.203 356.994L169.29 370.747L157.376 384.5L152.229 391.257L147.081 398.013L143.098 404.757L139.116 411.5L136.558 419.176L134 426.853V434.485V442.118L135 441.5L136 440.882V438.919V436.956L139.891 429.228L143.781 421.5L148.549 415L153.317 408.5L160.908 399.562L168.5 390.625L178.406 379.721L188.312 368.818L189.553 368.341L190.794 367.865L195.598 373.183L200.402 378.5L211.207 389.378L222.012 400.256L218.924 409.878L215.836 419.5L212.487 433.5L209.139 447.5L207.433 456.25L205.726 465H197.801H189.875L175.187 463.964L160.5 462.928L144.063 460.89L127.627 458.852L116.335 456L105.043 453.148L100.247 450.538L95.451 447.928L92.224 444.912L88.998 441.897L87.303 438.698L85.608 435.5L85.713 430L85.817 424.5L87.897 419L89.976 413.5L94.805 405.983L99.633 398.466L108.96 387.483L118.287 376.5L123.894 370.68L129.5 364.861L125.551 361.513L121.602 358.166L120.005 359.333L118.409 360.5L109.619 369.941L100.83 379.383L92.381 390.152L83.931 400.922L79.495 408.117L75.059 415.312L72.835 421.906L70.61 428.5L70.593 435.5L70.576 442.5L73.46 447.774L76.344 453.048L81.225 457.614L86.106 462.179L93.303 465.456L100.5 468.732L108.5 470.836L116.5 472.939L126 474.433L135.5 475.927L146.042 476.976L156.583 478.026L179.443 478.998L202.303 479.969L202.658 480.324L203.012 480.679L201 494L198.988 507.321L199.258 507.591L199.529 507.862L206.478 510.384L213.427 512.907L213.565 512.703L213.703 512.5L215.802 496.133L217.901 479.766L218.249 479.418L218.597 479.07L237.048 479.691L255.5 480.312L258.717 496.39L261.933 512.467L261.217 513.117L260.5 513.767L250.5 517.34L240.5 520.912L233.217 523.064L225.934 525.215L226.836 526.357L227.739 527.5L228.912 531.142L230.084 534.784L238.292 532.981L246.5 531.179L255.814 528.175L265.128 525.17L265.506 526.335L265.885 527.5L268.013 535.316L270.142 543.132L275.487 558.816L280.832 574.5L281.523 576.25L282.214 578H282.997H283.78L289.879 573.51L295.979 569.02L293.855 563.76L291.732 558.5L286.437 542.5L281.143 526.5L280.507 522.997L279.87 519.494L290.185 515.341L300.5 511.188L307.86 507.852L315.22 504.517L321.338 511.508L327.457 518.5L336.306 527.641L345.154 536.782L344.15 537.141L343.146 537.5L332.823 547.102L322.5 556.704L313.502 564.538L304.504 572.372L295.211 579.265L285.918 586.159L275.709 592.242L265.5 598.324L258.395 601.625L251.29 604.927L243.395 607.126L235.5 609.325L227.5 609.407L219.5 609.489L214.797 607.68L210.093 605.87L207.045 602.398L203.996 598.926L201.591 594.18L199.186 589.433L198.086 583.467L196.987 577.5L196.743 572.69L196.5 567.88L189.5 565.483L182.5 563.085L181.75 563.042L181 563L181.027 569.75L181.054 576.5L181.928 585.5L182.802 594.5L185.548 601.352L188.294 608.204L193.719 614.063L199.144 619.923L204.322 622.367L209.5 624.811L215.816 626.048L222.132 627.286L229.823 626.693L237.513 626.1L246.603 623.13L255.692 620.16L262.376 617.129L269.06 614.098L280.78 606.834L292.5 599.57L297.523 596.035L302.546 592.5L314.685 583.223L326.825 573.947L340.913 560.374L355.001 546.8L367.251 558.543L379.5 570.286L392.407 580.632L405.313 590.979L420.907 601.396L436.5 611.813L443 615.227L449.5 618.642L456 621.2L462.5 623.757L469.697 625.379L476.895 627L483.697 626.988L490.5 626.976L495.664 625.601L500.827 624.227L505.573 621.863L510.319 619.5L514.742 615.208L519.164 610.915L522.158 604.312L525.152 597.708L526.576 590.266L528 582.824V573.079V563.333L527.385 562.719L526.771 562.104L524.412 563.65L522.053 565.195L517.776 566.458L513.5 567.72L512.29 577.434L511.079 587.148L508.601 592.559L506.124 597.971L503.482 601.435L500.839 604.899L496.17 607.194L491.5 609.49L482.5 609.445L473.5 609.4L467 607.542L460.5 605.683L451.5 601.525L442.5 597.367L432.612 591.073L422.724 584.778L415.112 579.332L407.5 573.885L394.5 562.47L381.5 551.054L373.5 543.597L365.5 536.14L373.075 528.32L380.65 520.5L387.509 512.681L394.368 504.863L395.934 505.346L397.5 505.829L409.923 511.464L422.346 517.098L426.173 518.293L430 519.487V521.021V522.556L425.544 536.528L421.089 550.5L417.625 559.811L414.161 569.123L420.314 573.653L426.468 578.182L429.236 571.982L432.005 565.782L436.448 551.641L440.892 537.5L442.474 531.75L444.056 526H445.402H446.749L451.078 527.528L455.408 529.055L466.884 532.015L478.359 534.975L478.574 534.737L478.79 534.5L480.395 530.628L482 526.756V525.621V524.487L465.527 519.069L449.055 513.652L448.06 513.037L447.065 512.422L450.033 497.961L453 483.5L453.485 481.384L453.971 479.267L472.235 479.396L490.5 479.525L491.686 485.513L492.873 491.5L494.004 501.984L495.135 512.468L495.39 512.723L495.645 512.978L500.572 511.046L505.5 509.114L507.25 508.588L509 508.063V504.604V501.145L507.988 493.322L506.975 485.5L506.442 482.25L505.909 479L522.705 478.996L539.5 478.992L555.5 477.51L571.5 476.028L585.5 473.561L599.5 471.094L606.5 468.932L613.5 466.77L619.09 463.952L624.68 461.133L629.409 456.537L634.138 451.941L636.689 446.368L639.24 440.796L638.804 432.648L638.368 424.5L634.081 416L629.794 407.5L625.211 401L620.627 394.5L614.939 387.5L609.252 380.5L598.532 369.25L587.812 358L587.156 358.042L586.5 358.083L582.509 361.606L578.518 365.129L583.218 369.314L587.919 373.5L596.1 382.5L604.281 391.5L610.281 399.5L616.282 407.5L620.141 415.447L624 423.394V429.296V435.198L622.389 438.593L620.778 441.988L617.352 444.996L613.926 448.004L608.759 450.622L603.592 453.24L592.046 456.157L580.5 459.073L565.5 460.996L550.5 462.918L532.5 464.037L514.5 465.156L509.019 464.828L503.538 464.5L502.748 459.5L501.959 454.5L499.844 445L497.73 435.5L492.854 417.5L487.977 399.5L496.294 391.5L504.61 383.5L511.991 375.551L519.373 367.601L528.82 377.551L538.267 387.5L548.241 399L558.215 410.5L562.726 416.794L567.238 423.087L570.616 429.794L573.994 436.5L574.012 439L574.031 441.5L575 440L575.969 438.5L575.985 433.96L576 429.42L574.468 423.46L572.937 417.5L569.608 410.5L566.279 403.5L560.55 395.565L554.821 387.629L547.161 378.591L539.5 369.554L533.809 363.463L528.119 357.372L536.309 347.824L544.5 338.276L552.121 328.388L559.742 318.5L563.854 311.76L567.966 305.02L570.38 299.26L572.794 293.5L574.397 288.068L576 282.637L575.985 275.568L575.969 268.5L575 267L574.031 265.5L574.015 267.573L574 269.645L569.626 278.573L565.252 287.5L558.987 297L552.722 306.5L544.255 317.303L535.787 328.105L527.741 337.303L519.695 346.5L519.363 346.901L519.031 347.302L506.766 335.286L494.5 323.27L490.153 319.349L485.805 315.428L488.342 306.964L490.878 298.5L494.879 282L498.879 265.5L501.08 254.25L503.28 243H514.44H525.6L539.05 244.058L552.5 245.115L562.5 246.591L572.5 248.066L584 250.624L595.5 253.183L602.5 256.091L609.5 258.999L614.486 262.78L619.471 266.562L621.719 270.531L623.967 274.5L623.984 279.775L624 285.05L622.131 290.369L620.261 295.688L616.486 301.594L612.712 307.5L606.606 314.982L600.5 322.463L591.177 332.18L581.853 341.897L585.159 344.851L588.465 347.805L591.483 345.732L594.5 343.659L605.036 333.08L615.572 322.5L623.189 312.336L630.805 302.173L634.653 294.391L638.5 286.609V277.054V267.5L636.097 262.619L633.695 257.738L628.54 252.584L623.385 247.429L615.943 243.757L608.5 240.085L599 237.547L589.5 235.009L573.5 232.522L557.5 230.035L541.5 229.021L525.5 228.007L515.705 228.004L505.909 228L506.488 224.75L507.066 221.5L508.334 211.434L509.602 201.368L502.336 198.86L495.07 196.352L494.573 200.426L494.076 204.5L492.991 213L491.907 221.5L491.342 224.75L490.777 228H472.048H453.319L450.337 212.75L447.355 197.5L448.054 196.673L448.753 195.847L461.627 191.411L474.5 186.975L478.638 185.448L482.776 183.92L480.952 179.21L479.129 174.5L478.314 174.658L477.5 174.817L467.791 177.454L458.083 180.091L450.873 182.543L443.662 184.996L443.416 184.748L443.169 184.5L441.124 176.5L439.08 168.5L435.699 157.5L432.317 146.5L429.028 137.5L425.739 128.5L425.395 128.109L425.051 127.718L419.415 132.066L413.778 136.414L413.308 137.64L412.837 138.866L418.804 156.183L424.771 173.5L427.007 181.795L429.243 190.09L428.872 190.334L428.5 190.578L420 193.96L411.5 197.342L403.647 201.234L395.793 205.126L395.617 204.813L395.441 204.5L389.5 197.5L383.56 190.5L374.058 180.144L364.556 169.787L369.528 165.275L374.5 160.762L381 154.577L387.5 148.391L397 140.386L406.5 132.381L412.5 127.828L418.5 123.275L427.079 117.686L435.657 112.097L445.579 107.098L455.5 102.099L463.5 99.357L471.5 96.614L481 96.557L490.5 96.5L496 99.602L501.5 102.705L504.723 106.894L507.946 111.084L509.976 117.657L512.006 124.23L512.638 132.455L513.27 140.68L519.829 142.813L526.388 144.945L526.944 144.387L527.5 143.828L527.425 129.664L527.35 115.5L524.757 108.2L522.165 100.9L518.16 95.596L514.155 90.291L509.433 87.163L504.711 84.035L499.605 82.144L494.5 80.253L488 79.728L481.5 79.202L475.5 80.025ZM348.923 107.923L346 110.846V114.287V117.727L348.636 120.364L351.273 123H355.047H358.822L361.411 119.923L364 116.847V113.846V110.846L361.077 107.923L358.154 105H355H351.846L348.923 107.923ZM151.2 149.2L150 150.4V152.078V153.755L151.445 154.954L152.89 156.154L155.195 155.827L157.5 155.5L157.827 153.195L158.154 150.89L156.954 149.445L155.755 148H154.078H152.4L151.2 149.2ZM190.5 149.701L186.5 151.299L183.142 153.783L179.785 156.266L177.402 161.383L175.02 166.5L175.032 171.5L175.044 176.5L176.9 180.5L178.756 184.5L182.128 187.699L185.5 190.899L189.218 192.449L192.936 194L197.218 193.956L201.5 193.912L205.302 192.556L209.104 191.2L213.019 188.487L216.934 185.774L219.467 180.691L222 175.607L221.978 170.554L221.956 165.5L220.135 161.491L218.314 157.483L214.48 154.116L210.645 150.75L207.355 149.375L204.064 148L199.282 148.052L194.5 148.103L190.5 149.701ZM501.5 149.903L497.5 151.762L493.81 155.631L490.119 159.5L489.06 162.315L488 165.13V169.699V174.268L489.141 178.078L490.283 181.887L493.238 185.473L496.193 189.058L500.274 191.14L504.355 193.222L510.171 193.749L515.987 194.277L520.415 192.586L524.842 190.895L528.845 186.552L532.848 182.209L533.919 178.355L534.989 174.5L534.994 171.428L535 168.356L533.444 163.788L531.887 159.22L528.194 155.478L524.5 151.736L520.5 149.89L516.5 148.044H511H505.5L501.5 149.903ZM552.2 149.2L551 150.4V152.665V154.93L552.928 155.961L554.855 156.993L556.436 156.386L558.017 155.779L558.656 153.234L559.295 150.689L557.456 149.344L555.618 148H554.509H553.4L552.2 149.2ZM197.834 158.596L200.112 160.192L199.806 163.315L199.5 166.438L196.865 167.909L194.23 169.381L191.615 167.667L189 165.954V163.034V160.113L191.223 158.557L193.445 157H194.5H195.555L197.834 158.596ZM513.252 160.125L515.204 162.75L513.952 165.125L512.701 167.5L511.6 168.235L510.5 168.969L508.579 168.985L506.657 169L504.829 167.345L503 165.69V163.345V161L505.061 158.939L507.123 156.877L509.211 157.189L511.299 157.5L513.252 160.125ZM130.635 176.073L128 178.145V181.418V184.69L129.829 186.345L131.657 188H134.272H136.887L138.443 185.777L140 183.555V180.777V178L138 176L136 174H134.635H133.27L130.635 176.073ZM571.073 176.635L569 179.27V180.701V182.131L570.15 184.316L571.299 186.5L572.4 187.235L573.5 187.969L576.193 187.985L578.887 188L580.443 185.777L582 183.555V180.85V178.145L579.365 176.073L576.73 174H574.938H573.145L571.073 176.635ZM369.674 196.924L382 210.348V211.104V211.86L374.25 216.103L366.5 220.346L360.739 224.133L354.978 227.92L345.739 222.104L336.5 216.288L332.25 214.124L328 211.959V211.435V210.911L341.238 196.031L354.476 181.15L355.912 182.325L357.349 183.5L369.674 196.924ZM154.277 193.973L151.054 195.938L150.383 198.609L149.713 201.281L150.606 203.788L151.5 206.296L154.201 208.307L156.902 210.317L160.201 209.392L163.5 208.466L165.353 204.689L167.206 200.913L165.962 197.909L164.718 194.906L161.909 193.453L159.099 192L158.3 192.004L157.5 192.007L154.277 193.973ZM548.357 192.992L546.214 193.856L544.607 196.151L543 198.445V201.299V204.154L545.923 207.077L548.846 210H550.489H552.131L554.316 208.837L556.5 207.673L557.718 206.087L558.936 204.5L558.968 201.332L559 198.164L558.379 196.545L557.758 194.926L554.928 193.463L552.099 192L551.3 192.063L550.5 192.127L548.357 192.992ZM286.7 206.853L295.5 210.707L300.5 213.083L305.5 215.46L305.822 215.636L306.145 215.811L301.412 221.906L296.679 228H283.84H271V227.58V227.16L273.5 215.597L276 204.034V203.517V203H276.95H277.9L286.7 206.853ZM434.827 211.75L436.833 220.5L437.528 224.25L438.223 228H425.854H413.485L408.746 221.797L404.006 215.594L404.792 214.808L405.577 214.023L417.539 208.602L429.5 203.181L431.16 203.09L432.821 203L434.827 211.75ZM325.285 224.991L330.5 227.981L322.063 227.991L313.626 228L316.5 225L319.374 222H319.723H320.071L325.285 224.991ZM392.193 223.75L393.696 225.5L394.407 226.75L395.118 228L386.809 227.953L378.5 227.906L384 225L389.5 222.094L390.095 222.047L390.69 222L392.193 223.75ZM285.833 242.839L285.5 243.677L281.592 249.658L277.684 255.639L268.592 258.378L259.5 261.117L244.193 268.669L228.887 276.22L228.56 275.86L228.234 275.5L224.75 259.5L221.266 243.5L221.692 242.75L222.118 242H254.142H286.167L285.833 242.839ZM409.916 245.894L413 249.788V250.413V251.038L410.5 250.411L408 249.783V250.343V250.902L417.75 257.635L427.5 264.368L435.555 272.443L443.61 280.519L448.919 288.01L454.229 295.5L458.614 304.427L463 313.355V314.668V315.982L466.488 318.241L469.975 320.5L469.988 322.101L470 323.702L468.908 326.835L467.815 329.968L469.534 340.2L471.252 350.431L470.589 358.381L469.926 366.332L467.518 376.521L465.11 386.711L461.513 395.698L457.916 404.685L453.558 412.093L449.199 419.5L440.947 429.353L432.694 439.207L426.597 444.003L420.5 448.799L416.237 455.15L411.975 461.5L410.686 463.169L409.398 464.838L377.949 465.555L346.5 466.272L323.764 465.525L301.028 464.778L297.499 459.866L293.971 454.955L296.735 455.624L299.5 456.293L301.75 457.122L304 457.95V457.567V457.184L295.347 451.427L286.694 445.67L276.033 435.085L265.371 424.5L260.676 417.351L255.981 410.203L252.049 402.351L248.117 394.5L245.546 386.5L242.976 378.5L241.364 370L239.753 361.5L240.333 350.5L240.913 339.5L244.009 327.6L247.106 315.7L249.414 310.02L251.722 304.34L256.979 295.42L262.237 286.5L269.272 278.196L276.308 269.893L280.404 266.364L284.5 262.835L292.75 257.383L301 251.931V251.497V251.063L299.5 251.638L298 252.214V251.54V250.867L300.744 247.183L303.489 243.5L304.494 242.765L305.5 242.031L356.166 242.015L406.832 242L409.916 245.894ZM487.498 245.25L486.837 248.5L483.899 262L480.961 275.5L480.471 276.858L479.98 278.217L477.24 276.4L474.5 274.583L466.505 269.969L458.511 265.354L457.505 257.927L456.5 250.5L449.75 250.204L443 249.909V253.454V257H441.149H439.298L436.399 255.982L433.5 254.965L429.75 249.152L426 243.34V242.67V242H457.079H488.159L487.498 245.25ZM266 250.5V251H266.5H267V250.5V250H266.5H266V250.5ZM345 259.028L337.5 259.906L329.875 261.88L322.251 263.854L313.312 268.343L304.374 272.832L297.067 278.654L289.761 284.475L283.306 292.487L276.851 300.5L271.454 311.5L266.058 322.5L264.548 328.387L263.038 334.274L261.89 342.887L260.743 351.5L261.381 360.598L262.019 369.696L263.991 377.225L265.963 384.754L269.298 392.662L272.633 400.57L277.002 407.035L281.371 413.5L287.435 419.867L293.5 426.234L299 430.453L304.5 434.672L311 438.276L317.5 441.881L326.607 444.927L335.714 447.973L346.579 448.916L357.444 449.86L365.972 448.896L374.5 447.932L378.5 446.916L382.5 445.901L390.5 442.738L398.5 439.576L407.068 433.846L415.635 428.116L422.887 420.482L430.139 412.848L434.519 406.077L438.899 399.305L441.909 391.73L444.918 384.154L447.158 375.827L449.399 367.5L449.415 354L449.432 340.5L446.682 330.5L443.933 320.5L440.925 314.049L437.917 307.598L432.537 299.512L427.156 291.426L418.828 283.444L410.5 275.463L402.5 270.801L394.5 266.138L389.388 264.138L384.276 262.138L376.888 260.627L369.5 259.116L361 258.633L352.5 258.15L345 259.028ZM260.481 282.831L253.095 292.662L248.797 295.493L244.5 298.323L240.244 301.228L235.988 304.133L235.579 302.816L235.171 301.5L233.585 296.572L232 291.644V290.836V290.028L235.871 287.466L239.743 284.904L252.621 278.983L265.5 273.062L266.684 273.031L267.867 273L260.481 282.831ZM454.914 278.381L466.955 283.763L472.027 287.017L477.099 290.272L476.467 293.386L475.836 296.5L474.863 300.31L473.891 304.12L471.059 302.31L468.227 300.5L460.608 294.353L452.99 288.206L448.359 281.853L443.729 275.5L442.742 274.25L441.755 273H442.314H442.874L454.914 278.381ZM374.5 277.547L380.5 279.189L388 282.809L395.5 286.43L404.5 295.471L413.5 304.512L415.408 308.006L417.316 311.5L411.201 305.453L405.086 299.406L397.599 295.122L390.113 290.839L382.806 288.271L375.5 285.703L363 285.271L350.5 284.838L346.5 285.819L342.5 286.799L351.59 286.9L360.68 287L368.444 288.986L376.208 290.971L383.315 294.736L390.422 298.5L397.511 305.5L404.6 312.5L408.3 319.646L412 326.792V328.006V329.22L407.677 323.36L403.354 317.5L397.849 312.481L392.345 307.462L386.236 304.207L380.128 300.951L372.404 298.975L364.68 297L358.59 297.017L352.5 297.035L345.588 298.499L338.675 299.964L332.173 303.006L325.671 306.049L318.586 313.274L311.5 320.5L308.334 326.5L305.168 332.5L303.584 338.644L302 344.789V354.184V363.58L303.547 369.54L305.094 375.5L307.541 381L309.987 386.5L307.461 383.5L304.935 380.5L302.056 375.5L299.178 370.5L296.848 363L294.519 355.5L294.566 345.5L294.613 335.5L296.402 329.517L298.191 323.534L301.108 317.101L304.026 310.667L302.195 312.323L300.365 313.979L295.704 322.819L291.043 331.659L288.916 340.58L286.788 349.5L287.254 361L287.719 372.5L290.493 380L293.267 387.5L296.766 393L300.265 398.5L306.987 405L313.709 411.5L320.604 415.553L327.5 419.607L332.5 421.717L337.5 423.827L345.208 425.414L352.916 427L358.708 426.965L364.5 426.93L372.5 425.485L380.5 424.039L381 424.035L381.5 424.031L380 425.017L378.5 426.004L371.5 428.215L364.5 430.427L354.5 430.414L344.5 430.401L339 429.098L333.5 427.795L325.5 423.983L317.5 420.171L310.92 415.181L304.34 410.19L298.752 404.015L293.164 397.84L289.693 391.17L286.222 384.5L283.648 376.745L281.073 368.99L279.924 360.354L278.775 351.717L279.94 342.627L281.106 333.536L283.502 326.398L285.899 319.26L289.067 313.88L292.236 308.5L296.211 303.5L300.185 298.5L305.506 294L310.827 289.5L317.664 285.412L324.5 281.323L331 279.177L337.5 277.031L343 276.066L348.5 275.102L358.5 275.503L368.5 275.904L374.5 277.547ZM199 302.32L188.5 307.551L182.5 310.934L176.5 314.317L175.217 315.309L173.933 316.3L176.104 318.61L178.274 320.921L183.387 316.596L188.5 312.272L198.5 305.471L208.5 298.67L209.45 297.835L210.4 297L209.95 297.044L209.5 297.088L199 302.32ZM499 297.461V297.792L504.25 301.113L509.5 304.435L520.335 312.296L531.169 320.157L533.085 318.424L535 316.69V316.044V315.398L527.75 311.285L520.5 307.173L509.75 302.152L499 297.13V297.461ZM372.208 317.766L378.915 320.836L383.489 325.542L388.062 330.247L389.131 332.244L390.2 334.241L388.85 333.426L387.5 332.61L383.755 329.917L380.01 327.225L373.755 325.542L367.5 323.859L362.011 324.18L356.521 324.5L356.835 332L357.148 339.5L354.811 343L352.474 346.5L348.561 348.417L344.647 350.333L339.886 350.225L335.125 350.116L331.813 348.419L328.5 346.721L327.804 345.639L327.109 344.558L326.52 345.147L325.932 345.735L324.905 352.109L323.879 358.482L324.994 364.889L326.11 371.295L328.187 375.398L330.265 379.5L328.024 377.5L325.784 375.5L323.367 370.735L320.951 365.969L319.354 359.736L317.757 353.503L318.337 347.502L318.917 341.5L320.424 336.5L321.932 331.5L324.535 327.5L327.137 323.5L331.058 320.693L334.979 317.885L340.24 315.953L345.5 314.02L355.5 314.358L365.5 314.697L372.208 317.766ZM242.39 321.75L241.742 324.5L240.97 325.351L240.199 326.201L239.477 323.927L238.755 321.652L240.569 320.326L242.382 319H242.71H243.038L242.39 321.75ZM138.982 341.569L128.5 352.139L132.5 355.647L136.5 359.155L146.371 365.123L156.243 371.091L156.666 370.667L157.09 370.244L150.795 365.221L144.5 360.198L142 357.508L139.5 354.818L147.809 347.159L156.117 339.5L152.972 335.25L149.827 331H149.646H149.464L138.982 341.569ZM231.429 344.91L236.132 357.82L234.203 361.66L232.273 365.5L229.387 374L226.5 382.5L226.221 382.946L225.941 383.392L218.396 375.946L210.851 368.5L205.763 362.677L200.676 356.854L213.073 344.427L225.47 332H226.098H226.727L231.429 344.91ZM499.75 347.462L509 356.46V357.325V358.189L497.352 370.595L485.704 383H485.043H484.382L482.771 378.25L481.16 373.5L477.746 364.538L474.332 355.576L477.579 346.538L480.826 337.5L481.949 334.589L483.073 331.678L486.786 335.071L490.5 338.463L499.75 347.462ZM556.651 335.846L552.855 339.733L561.408 347.561L569.962 355.39L564.254 360.445L558.545 365.5L555.523 368.314L552.5 371.129L554.5 370.153L556.5 369.177L562 365.838L567.5 362.5L573.229 358.5L578.958 354.5L579.524 353.051L580.09 351.602L570.268 341.78L560.446 331.959L556.651 335.846ZM625.301 349.4L622.237 351.978L621.71 354.739L621.182 357.499L622.506 360.669L623.831 363.839L625.85 364.92L627.869 366L630.684 365.995L633.5 365.99L636.282 363.745L639.063 361.5L639.64 357.887L640.217 354.275L637.359 351.135L634.5 347.995L631.432 347.409L628.364 346.823L625.301 349.4ZM72.455 350.455L70 352.909V356.004V359.099L71.463 361.928L72.926 364.758L74.545 365.379L76.164 366H78.895H81.626L84.201 363.25L86.775 360.5L87.439 358.3L88.103 356.1L86.541 353.08L84.979 350.059L83.055 349.03L81.131 348H78.02H74.909L72.455 350.455ZM408.998 373.505L406.991 379.339L404.052 383.919L401.112 388.5L397.806 391.685L394.5 394.871L388.657 398.376L382.813 401.882L375.959 403.441L369.105 405L364.303 404.93L359.5 404.859L357.5 404L355.5 403.141L358.54 403.07L361.58 403L367.54 401.49L373.5 399.98L381.693 395.97L389.886 391.96L396.775 385.23L403.665 378.5L407.041 372.792L410.417 367.084L410.711 367.378L411.005 367.672L408.998 373.505ZM471.024 391.073L472.402 395.247L467.952 399.041L463.502 402.835L463.369 402.668L463.236 402.5L465.853 394.336L468.47 386.172L469.058 386.536L469.647 386.9L471.024 391.073ZM244.767 395.195L247.743 402.89L243.006 398.809L238.268 394.728L239.79 390.853L241.312 386.978L241.552 387.239L241.791 387.5L244.767 395.195ZM410 391.5V392H409.5H409V391.5V391H409.5H410V391.5ZM406.337 396.808L403.5 400.616L399.5 404.153L395.5 407.69L391 410.232L386.5 412.774L381 414.63L375.5 416.486L364 416.411L352.5 416.336L348.17 414.918L343.841 413.5L356.17 413.446L368.5 413.392L376.455 411.143L384.41 408.894L391.088 405.385L397.765 401.876L402.964 397.438L408.163 393H408.668H409.173L406.337 396.808ZM241.664 418.75L249.187 425.5L261.169 439.341L273.151 453.183L270.826 452.487L268.5 451.79L260.173 447.301L251.847 442.812L246.173 438.274L240.5 433.736L235.75 429.155L231 424.575V423.337V422.098L232.083 417.049L233.166 412H233.654H234.142L241.664 418.75ZM342 412.5V413H341.5H341V412.5V412H341.5H342V412.5ZM477.895 419.379L479.744 426.044L472.622 432.199L465.5 438.354L457.282 443.719L449.065 449.084L444.485 451.11L439.906 453.135L438.917 452.806L437.928 452.476L443.5 445.721L449.072 438.966L462.182 425.463L475.293 411.959L475.67 412.337L476.047 412.714L477.895 419.379ZM383 423.5V424H382.5H382V423.5V423H382.5H383V423.5ZM233.861 435.871L238.5 439.742L245 443.925L251.5 448.108L252.192 451.804L252.885 455.5L252.942 460.25L253 465H237.5H222V462.695V460.39L225 446.664L228 432.938V432.469V432H228.611H229.222L233.861 435.871ZM482.457 438.25L483.969 443.5L485.984 453.36L488 463.22V464.11V465H471.912H455.824L456.385 461.25L456.946 457.5L457.559 452.932L458.172 448.364L463.526 445.162L468.88 441.959L474.19 437.531L479.5 433.103L480.222 433.051L480.944 433L482.457 438.25ZM277.336 458.866L280.172 461.5L281.121 463.25L282.07 465H275.136H268.201L267.838 460.429L267.474 455.859L267.731 455.602L267.989 455.345L271.244 455.789L274.5 456.232L277.336 458.866ZM441.909 460.25L441.087 464.5L441.044 465.25L441 466H434H427V465.196V464.392L430.344 461.151L433.687 457.911L436.594 457.041L439.5 456.172L441.116 456.086L442.731 456L441.909 460.25ZM299.897 485.884L306 492.768V493.786V494.804L303.25 495.819L300.5 496.834L289.021 501.888L277.542 506.942L276.847 506.221L276.152 505.5L273.564 493.175L270.975 480.85L271.546 479.925L272.118 479H282.956H293.794L299.897 485.884ZM333.5 480.612L331.5 482.16L326.783 484.58L322.066 487H320.617H319.168L316 483L312.832 479L324.166 479.032L335.5 479.064L333.5 480.612ZM398 479.544V480.087L394.349 484.033L390.699 487.978L383.849 484.279L377 480.579V479.79V479H387.5H398V479.544ZM438.001 481.75L438.002 483.5L435.885 494.129L433.768 504.758L433.021 505.965L432.275 507.173L418.888 501.028L405.5 494.884L404.591 493.983L403.683 493.083L409.426 486.541L415.169 480H426.585H438L438.001 481.75ZM365.613 488.693L374.592 494.588L377.834 495.931L381.075 497.274L380.737 498.289L380.399 499.304L367.949 512.691L355.5 526.078L343.168 513.32L330.836 500.562L329.912 498.835L328.987 497.108L336.744 493.07L344.5 489.032L349.5 485.569L354.5 482.107L355.567 482.452L356.635 482.797L365.613 488.693ZM152.455 504.455L150 506.909V510.5V514.091L152.455 516.545L154.909 519H157.004H159.099L161.928 517.537L164.758 516.074L165.379 514.455L166 512.836V509.593V506.349L163.686 504.174L161.371 502H158.14H154.909L152.455 504.455ZM545.589 505.077L543 508.153V510.126V512.099L544.463 514.928L545.926 517.758L547.545 518.379L549.164 519H551.659H554.154L557.077 516.077L560 513.154V511.011V508.869L558.837 506.684L557.673 504.5L556.087 503.282L554.5 502.064L551.339 502.032L548.178 502L545.589 505.077ZM191.764 515.996L189.028 516.82L185.582 518.949L182.136 521.079L179.114 525.642L176.092 530.204L175.446 534.51L174.801 538.816L175.522 542.158L176.244 545.5L178.05 549.07L179.857 552.639L183.678 555.149L187.5 557.66L190.899 558.83L194.298 560H199.681H205.064L208.782 558.447L212.5 556.894L215.342 554.197L218.183 551.5L220.092 547.79L222 544.08V539.906V535.732L220.784 531.616L219.568 527.5L214.53 522.431L209.492 517.361L204.803 516.181L200.114 515L197.307 515.086L194.5 515.172L191.764 515.996ZM504.222 516.417L499.944 517.806L496.575 520.375L493.207 522.944L490.603 528.168L488 533.393V538.736V544.08L489.908 547.79L491.817 551.5L494.658 554.197L497.5 556.894L501.218 558.447L504.936 560H510.979H517.022L521.482 557.904L525.941 555.807L529.412 551.966L532.882 548.124L534.128 543.968L535.373 539.811L534.241 534.415L533.11 529.02L530.075 524.609L527.04 520.198L522.372 517.938L517.703 515.678L513.102 515.353L508.5 515.027L504.222 516.417ZM199.667 527.615L201.381 530.23L199.909 532.865L198.437 535.5L195.63 535.825L192.823 536.15L190.912 534.42L189 532.69V531.068V529.445L190.557 527.223L192.113 525H195.034H197.954L199.667 527.615ZM513.823 528.303L515.16 531.107L513.557 533.553L511.954 536H509.177H506.4L505.2 534.8L504 533.6V530.5V527.4L505.245 526.155L506.49 524.91L509.488 525.205L512.486 525.5L513.823 528.303ZM573.278 526.093L571.131 526.887L570.065 528.878L569 530.869V533.279V535.69L570.967 537.47L572.934 539.25H575.656H578.379L580.19 537.014L582 534.778V532.612V530.445L580.531 528.347L579.061 526.249L577.243 525.774L575.425 525.298L573.278 526.093ZM129.016 528.707L126.887 531.413L127.524 533.951L128.161 536.489L129.203 537.744L130.245 539H133.467H136.69L138.47 537.033L140.25 535.066V532.5V529.934L138.47 527.967L136.69 526H133.918H131.145L129.016 528.707ZM552.596 557.306L550.81 558.612L551.155 560.954L551.5 563.296L553.25 564.393L555 565.49L556.75 564.388L558.5 563.286L558.838 561.568L559.175 559.851L557.433 557.926L555.69 556H555.036H554.382L552.596 557.306ZM151.017 558.479L149.706 560.059L150.832 562.53L151.957 565L153.729 564.985L155.5 564.969L156.83 564.126L158.16 563.283L157.83 560.391L157.5 557.5L154.914 557.199L152.329 556.899L151.017 558.479ZM348.455 591.455L346 593.909V597.02V600.131L347.163 602.316L348.327 604.5L349.913 605.718L351.5 606.936L353.703 606.968L355.906 607L358.528 605.805L361.15 604.611L362.575 601.855L364 599.099V596.504V593.909L361.545 591.455L359.091 589H355H350.909L348.455 591.455ZM389.911 603.321L383.5 612.443L375.5 620.473L367.5 628.503L362.89 630.752L358.281 633H354.456H350.631L346.066 630.827L341.5 628.654L334.481 621.577L327.462 614.5L320.233 604.75L313.004 595H312.531H312.058L307.529 598.193L303 601.385V602.073V602.762L311.172 614.131L319.344 625.5L326.486 632.5L333.627 639.5L338.564 642.149L343.5 644.798L349.057 645.93L354.614 647.062L360.057 645.922L365.5 644.783L370.5 642.149L375.5 639.514L383.584 631.42L391.669 623.325L398.834 612.609L406 601.893L405.982 601.197L405.964 600.5L401.143 597.349L396.322 594.198L389.911 603.321Z"
    fill="#00E0FF" />
</svg>
  